# AST/ASF file generated using VICON BodyLanguage
# -----------------------------------------------
:version 1.10
:name VICON
:units
  mass 1.0
  length 0.45
  angle deg
:documentation
   .ast/.asf automatically generated from VICON data using
   VICON BodyBuilder and BodyLanguage model FoxedUp or BRILLIANT.MOD
:root
   order TX TY TZ RX RY RZ
   axis XYZ
   position 0 0 0  
   orientation 0 0 0 
:bonedata
  begin
     id 1 
     name lhipjoint
     direction 0.584852 -0.759097 0.285867 
     length 2.43633 
     axis 0 0 0  XYZ
  end
  begin
     id 2 
     name lfemur
     direction 0.34202 -0.939693 0  
     length 7.14704  
     axis 0 0 20  XYZ
    dof rx ry rz
    limits (-160.0 20.0)
           (-70.0 70.0)
           (-60.0 70.0)
  end
  begin
     id 3 
     name ltibia
     direction 0.342022 -0.939692 0   
     length 7.68483   
     axis 0 0 20   XYZ
    dof rx
    limits (-10.0 170.0)
  end
  begin
     id 4 
     name lfoot
     direction 0.0999605 -0.274639 0.956337   
     length 2.40452   
     axis -90 7.62852e-016 20   XYZ
    dof rx rz
    limits (-45.0 90.0)
           (-70.0 20.0)
  end
  begin
     id 5 
     name ltoes
     direction 1.53468e-011 -4.21881e-011 1   
     length 1.19837   
     axis -90 7.62852e-016 20   XYZ
    dof rx
    limits (-90.0 20.0)
  end
  begin
     id 6 
     name rhipjoint
     direction -0.569886 -0.769002 0.289597   
     length 2.40495  
     axis 0 0 0  XYZ 
  end
  begin
     id 7 
     name rfemur
     direction -0.34202 -0.939693 0   
     length 7.45086   
     axis 0 0 -20   XYZ
    dof rx ry rz
    limits (-160.0 20.0)
           (-70.0 70.0)
           (-70.0 60.0)
  end
  begin
     id 8 
     name rtibia
     direction -0.34202 -0.939693 0   
     length 7.76831   
     axis 0 0 -20   XYZ
    dof rx
    limits (-10.0 170.0)
 end
 begin
     id 9 
     name rfoot
     direction -0.0798572 -0.219406 0.97236   
     length 2.35911  
     axis -90 -7.62852e-016 -20   XYZ
    dof rx rz
    limits (-45.0 90.0)
           (-20.0 70.0)
  end
  begin
     id 10 
     name rtoes
     direction -1.53469e-011 -4.21728e-011 1   
     length 1.18261   
     axis -90 -7.62852e-016 -20   XYZ
    dof rx
    limits (-90.0 20.0)
  end
  begin
     id 11 
     name lowerback
     direction 0.0242088 0.999437 0.0232389   
     length 2.1561   
     axis 0 0 0   XYZ
    dof rx ry rz
    limits (-20.0 45.0)
           (-30.0 30.0)
           (-30.0 30.0)
  end
  begin
     id 12 
     name upperback
     direction -0.0356893 0.999013 -0.0264323   
     length 2.14431   
     axis 0 0 0   XYZ
    dof rx ry rz
    limits (-20.0 45.0)
           (-30.0 30.0)
           (-30.0 30.0)
  end
  begin
     id 13 
     name thorax
     direction -0.0472163 0.998194 -0.0371284   
     length 2.16169   
     axis 0 0 0   XYZ
    dof rx ry rz
    limits (-20.0 45.0)
           (-30.0 30.0)
           (-30.0 30.0)
  end
  begin
     id 14 
     name lowerneck
     direction 0.00863244 0.999921 0.00911972   
     length 1.58651   
     axis 0 0 0   XYZ
    dof rx ry rz
    limits (-20.0 45.0)
           (-30.0 30.0)
           (-30.0 30.0)
  end
  begin
     id 15 
     name upperneck
     direction 0.149523 0.979068 -0.138086   
     length 1.57486   
     axis 0 0 0   XYZ
    dof rx ry rz
    limits (-20.0 45.0)
           (-30.0 30.0)
           (-30.0 30.0)
  end
  begin
     id 16
     name head
     direction 0.0445219 0.997708 -0.0509576  
     length 1.6019  
     axis 0 0 0   XYZ
    dof rx ry rz
    limits (-20.0 45.0)
           (-30.0 30.0)
           (-30.0 30.0)
  end
  begin
     id 17 
     name lclavicle
     direction 0.911271 0.381667 -0.154644  
     length 3.80848  
     axis 0 0 0   XYZ
    dof ry rz
    limits (-20.0 10.0)
           (0.0 20.0)
  end
  begin
     id 18 
     name lhumerus
     direction 1 -4.49003e-011 2.1308e-027   
     length 5.19069   
     axis 180 -30 -90   XYZ
    dof rx ry rz
    limits (-60.0 90.0)
           (-90.0 90.0)
           (-90.0 90.0)
  end
  begin
     id 19
     name lradius
     direction 1 -4.48914e-011 4.01554e-027   
     length 3.30016   
     axis 180 -30 -90   XYZ
    dof rx
    limits (-10.0 170.0)
  end
  begin
     id 20
     name lwrist
     direction 1 -4.49003e-011 1.1934e-026   
     length 1.65008   
     axis -8.46377e-015 90 90   XYZ
    dof ry
    limits (-180.0 0.0)
 end
  begin
     id 21 
     name lhand
     direction 1 -4.49034e-011 2.38659e-026   
     length 0.707698   
     axis -1.52313e-014 90 90   XYZ
    dof rx rz
    limits (-90.0 90.0)
           (-45.0 45.0)
  end
  begin
     id 22 
     name lfingers
     direction 1 -4.48691e-011 4.77775e-026   
     length 0.570564   
     axis -3.04623e-014 90 90   XYZ
    dof rx
    limits (0.0 90.0)
  end
  begin
     id 23
     name lthumb
     direction 0.707107 -6.34832e-011 0.707107   
     length 0.819219   
     axis -90 45 -1.62303e-014   XYZ
    dof rx rz
    limits (-45.0 45.0)
           (-45.0 45.0)
  end
  begin
     id 24 
     name rclavicle
     direction -0.815579 0.573708 -0.0754329   
     length 3.54371  
     axis 0 0 0   XYZ 
    dof ry rz
    limits (-10.0 20.0)
           (-20.0 0.0)
  end
  begin
     id 25 
     name rhumerus
     direction -1 -4.48956e-011 3.05351e-028  
     length 5.23924   
     axis 180 30 90   XYZ
    dof rx ry rz
    limits (-90.0 60.0)
           (-90.0 90.0)
           (-90.0 90.0)
  end
  begin
     id 26 
     name rradius
     direction -1 -4.49013e-011 3.53849e-027   
     length 3.32953   
     axis 180 30 90   XYZ
    dof rx
    limits (-10.0 170.0)
  end
  begin
     id 27 
     name rwrist
     direction -1 -4.48901e-011 1.19374e-026   
     length 1.66477   
     axis -8.46377e-015 -90 -90   XYZ
    dof ry
    limits (-180.0 0.0)
  end
  begin
     id 28
     name rhand
     direction -1 -4.48877e-011 2.38764e-026   
     length 0.607414   
     axis -1.52313e-014 -90 -90   XYZ
    dof rx rz
    limits (-90.0 90.0)
           (-45.0 45.0)
  end
  begin
     id 29
     name rfingers
     direction -1 -4.48882e-011 4.77521e-026   
     length 0.489712   
     axis -3.04623e-014 -90 -90   XYZ
    dof rx
    limits (0.0 90.0)
  end
  begin
     id 30
     name rthumb
     direction -0.707107 -6.34974e-011 0.707107   
     length 0.703132   
     axis -90 -45 1.62303e-014   XYZ
    dof rx rz
    limits (-45.0 45.0)
           (-45.0 45.0)
  end
:hierarchy
  begin
    root lhipjoint rhipjoint lowerback
    lhipjoint lfemur
    lfemur ltibia
    ltibia lfoot
    lfoot ltoes
    rhipjoint rfemur
    rfemur rtibia
    rtibia rfoot
    rfoot rtoes
    lowerback upperback
    upperback thorax
    thorax lowerneck lclavicle rclavicle
    lowerneck upperneck
    upperneck head
    lclavicle lhumerus
    lhumerus lradius
    lradius lwrist
    lwrist lhand lthumb
    lhand lfingers
    rclavicle rhumerus
    rhumerus rradius
    rradius rwrist
    rwrist rhand rthumb
    rhand rfingers
  end

#!OML:ASF E:\VariousWalksJay\Project 1\Capture day 1\Session 1\Actor2.ASF
:FULLY-SPECIFIED
:DEGREES
1
root -3.43651 17.263 -5.27143 2.67104 0.410843 -7.40384
lowerback -7.53989 -2.12691 5.27054
upperback 2.79036 -3.43016 0.540414
thorax 6.89771 -1.46328 -2.83976
lowerneck 0.0847517 -12.7636 -13.5217
upperneck 1.21216 -18.2045 23.6729
head 3.90262 -8.98537 8.44826
rclavicle -6.41081e-015 8.74653e-015
rhumerus 0 0 0
rradius 0
rwrist 0
rhand 0 0
rfingers 0
rthumb 0 0
lclavicle -6.41081e-015 8.74653e-015
lhumerus -25.3525 -1.52881 85.1104
lradius 16.4316
lwrist -0.523156
lhand -11.6325 -8.42137
lfingers 7.12502
lthumb 14.4112 21.0583
rfemur -16.8962 0.232698 26.2288
rtibia 38.7534
rfoot -23.1755 -3.83817
rtoes -3.22972
lfemur -10.8694 5.84199 -11.7537
ltibia 36.4115
lfoot -30.7131 21.7661
ltoes -4.35712
2
root -3.44535 17.2626 -5.26755 2.65714 0.527181 -7.37944
lowerback -7.53684 -2.13379 5.26124
upperback 2.74881 -3.43659 0.542715
thorax 6.8516 -1.46909 -2.8316
lowerneck 0.225662 -12.795 -13.556
upperneck 1.1937 -18.2552 23.6521
head 3.8835 -9.02028 8.45056
rclavicle -2.6339e-015 -1.59028e-015
rhumerus 0 0 0
rradius 0
rwrist 0
rhand 0 0
rfingers 0
rthumb 0 0
lclavicle -2.6339e-015 -1.59028e-015
lhumerus -25.5128 -1.34464 85.006
lradius 16.3657
lwrist -0.612095
lhand -11.7367 -8.43755
lfingers 7.12502
lthumb 14.3107 21.0493
rfemur -16.8674 0.211276 26.2414
rtibia 38.7595
rfoot -23.2285 -3.90481
rtoes -3.11448
lfemur -10.8753 5.83749 -11.7263
ltibia 36.4238
lfoot -30.679 21.6387
ltoes -4.322
3
root -3.45298 17.2625 -5.26343 2.65858 0.648417 -7.39774
lowerback -7.55439 -2.14044 5.29446
upperback 2.71043 -3.4501 0.56799
thorax 6.81941 -1.47651 -2.82504
lowerneck 0.367629 -12.8042 -13.6347
upperneck 1.16919 -18.2797 23.6927
head 3.86864 -9.04245 8.4832
rclavicle -7.20594e-015 -7.15625e-015
rhumerus 0 0 0
rradius 0
rwrist 0
rhand 0 0
rfingers 0
rthumb 0 0
lclavicle -7.20594e-015 -7.15625e-015
lhumerus -25.6634 -1.11097 84.9118
lradius 16.3252
lwrist -0.695277
lhand -11.8122 -8.3931
lfingers 7.12502
lthumb 14.238 21.0989
rfemur -16.8557 0.160636 26.2959
rtibia 38.7696
rfoot -23.2536 -3.96844
rtoes -3.14561
lfemur -10.8957 5.82255 -11.6609
ltibia 36.4239
lfoot -30.6189 21.5675
ltoes -4.4096
4
root -3.46118 17.262 -5.25888 2.63618 0.782824 -7.36266
lowerback -7.57351 -2.15804 5.26572
upperback 2.73172 -3.47289 0.569652
thorax 6.85286 -1.48753 -2.81167
lowerneck 0.339226 -12.856 -13.6331
upperneck 1.16284 -18.3486 23.6948
head 3.88508 -9.0743 8.47209
rclavicle 1.18277e-014 -3.97569e-015
rhumerus 0 0 0
rradius 0
rwrist 0
rhand 0 0
rfingers 0
rthumb 0 0
lclavicle 1.18277e-014 -3.97569e-015
lhumerus -25.7149 -0.971586 84.8259
lradius 16.2872
lwrist -0.654889
lhand -11.8719 -8.46813
lfingers 7.12502
lthumb 14.1804 21.0279
rfemur -16.8144 0.11935 26.2931
rtibia 38.7819
rfoot -23.2995 -4.05427
rtoes -3.1935
lfemur -10.8909 5.80305 -11.6524
ltibia 36.4212
lfoot -30.5289 21.5162
ltoes -4.59278
5
root -3.46843 17.262 -5.25471 2.62849 0.925741 -7.32002
lowerback -7.61568 -2.15228 5.24257
upperback 2.71536 -3.46398 0.556831
thorax 6.8608 -1.48382 -2.81281
lowerneck 0.444701 -12.9048 -13.6594
upperneck 1.17927 -18.4318 23.721
head 3.89306 -9.12096 8.48085
rclavicle 9.98893e-015 -1.27222e-014
rhumerus 0 0 0
rradius 0
rwrist 0
rhand 0 0
rfingers 0
rthumb 0 0
lclavicle 9.98893e-015 -1.27222e-014
lhumerus -25.8204 -0.909527 84.7561
lradius 16.2865
lwrist -0.595336
lhand -11.9309 -8.49068
lfingers 7.12502
lthumb 14.1236 21.0093
rfemur -16.794 0.0471123 26.277
rtibia 38.7933
rfoot -23.342 -4.10621
rtoes -3.1333
lfemur -10.9032 5.79977 -11.6523
ltibia 36.4167
lfoot -30.4707 21.4067
ltoes -4.63403
6
root -3.47622 17.2618 -5.25051 2.61662 1.05927 -7.29868
lowerback -7.64078 -2.1564 5.23302
upperback 2.70326 -3.46975 0.559014
thorax 6.86247 -1.48722 -2.80684
lowerneck 0.514353 -12.9451 -13.6941
upperneck 1.19269 -18.4992 23.7442
head 3.90386 -9.15775 8.48938
rclavicle -2.61899e-014 -8.74653e-015
rhumerus -31.9962 -5.51629 -81.2272
rradius 27.7951
rwrist 0.39768
rhand -9.97741 -9.71415
rfingers 7.12502
rthumb 16.0054 -39.073
lclavicle -2.61899e-014 -8.74653e-015
lhumerus -25.925 -0.785353 84.6759
lradius 16.2792
lwrist -0.57718
lhand -11.9905 -8.51938
lfingers 7.12502
lthumb 14.0662 20.9846
rfemur -16.7685 0.00091506 26.2882
rtibia 38.8064
rfoot -23.3839 -4.178
rtoes -3.11476
lfemur -10.9078 5.78789 -11.6281
ltibia 36.4082
lfoot -30.4001 21.3231
ltoes -4.72017
7
root -3.48394 17.2615 -5.2464 2.6038 1.19498 -7.27874
lowerback -7.66643 -2.16008 5.22375
upperback 2.69327 -3.47505 0.560809
thorax 6.86672 -1.49026 -2.80148
lowerneck 0.57635 -12.9875 -13.7278
upperneck 1.21554 -18.5708 23.77
head 3.91978 -9.19569 8.4973
rclavicle -2.56929e-014 8.74653e-015
rhumerus -31.9395 -5.36588 -81.3029
rradius 27.9843
rwrist 0.173786
rhand -9.76278 -9.71604
rfingers 7.12502
rthumb 16.2121 -39.0582
lclavicle -2.56929e-014 8.74653e-015
lhumerus -26.0254 -0.674524 84.6002
lradius 16.2874
lwrist -0.542775
lhand -12.0437 -8.55325
lfingers 7.12502
lthumb 14.0149 20.9543
rfemur -16.7408 -0.0439053 26.301
rtibia 38.8165
rfoot -23.4242 -4.25403
rtoes -3.09995
lfemur -10.9136 5.77434 -11.6027
ltibia 36.402
lfoot -30.3289 21.2412
ltoes -4.81204
8
root -3.49161 17.2612 -5.24234 2.58809 1.33329 -7.25967
lowerback -7.69053 -2.16275 5.21479
upperback 2.68546 -3.47895 0.561516
thorax 6.87245 -1.49249 -2.79724
lowerneck 0.632829 -13.0331 -13.757
upperneck 1.24506 -18.6475 23.7942
head 3.93899 -9.23549 8.50276
rclavicle 8.34896e-015 -3.73715e-014
rhumerus -31.8913 -5.16267 -81.4155
rradius 28.1504
rwrist 0.0958266
rhand -9.79569 -9.72531
rfingers 7.12502
rthumb 16.1804 -39.07
lclavicle 8.34896e-015 -3.73715e-014
lhumerus -26.1209 -0.581861 84.53
lradius 16.3077
lwrist -0.4901
lhand -12.0945 -8.59792
lfingers 7.12502
lthumb 13.9659 20.913
rfemur -16.709 -0.0867293 26.3149
rtibia 38.824
rfoot -23.4645 -4.33395
rtoes -3.08169
lfemur -10.9177 5.75692 -11.5764
ltibia 36.3976
lfoot -30.2611 21.1576
ltoes -4.89549
9
root -3.4992 17.261 -5.2384 2.57212 1.47663 -7.24253
lowerback -7.71397 -2.16448 5.20782
upperback 2.67647 -3.48168 0.5619
thorax 6.87649 -1.49412 -2.79424
lowerneck 0.695075 -13.0794 -13.7853
upperneck 1.27513 -18.726 23.8191
head 3.95777 -9.27652 8.50851
rclavicle 9.14409e-015 2.38542e-015
rhumerus -31.8416 -5.00323 -81.505
rradius 28.3133
rwrist -0.00412921
rhand -9.76057 -9.71536
rfingers 7.12502
rthumb 16.2142 -39.0573
lclavicle 9.14409e-015 2.38542e-015
lhumerus -26.2158 -0.50596 84.4662
lradius 16.34
lwrist -0.420915
lhand -12.1423 -8.6518
lfingers 7.12502
lthumb 13.9199 20.8623
rfemur -16.6764 -0.130153 26.331
rtibia 38.8297
rfoot -23.5042 -4.41761
rtoes -3.06255
lfemur -10.9233 5.73226 -11.5488
ltibia 36.3933
lfoot -30.1949 21.0757
ltoes -4.97681
10
root -3.5067 17.2608 -5.23455 2.55441 1.62489 -7.22802
lowerback -7.73544 -2.16629 5.20279
upperback 2.66917 -3.4847 0.562905
thorax 6.88113 -1.49578 -2.79165
lowerneck 0.753721 -13.1271 -13.8092
upperneck 1.30447 -18.806 23.8426
head 3.97667 -9.31799 8.51263
rclavicle 2.45002e-014 -3.18055e-015
rhumerus -31.7887 -4.8498 -81.5942
rradius 28.4818
rwrist -0.10114
rhand -9.74643 -9.77265
rfingers 7.12502
rthumb 16.2278 -39.1135
lclavicle 2.45002e-014 -3.18055e-015
lhumerus -26.3041 -0.446385 84.4096
lradius 16.3833
lwrist -0.33213
lhand -12.1819 -8.71742
lfingers 7.12502
lthumb 13.8817 20.7993
rfemur -16.6413 -0.174902 26.3498
rtibia 38.8334
rfoot -23.5439 -4.50485
rtoes -3.0463
lfemur -10.9287 5.69995 -11.5191
ltibia 36.3894
lfoot -30.1291 20.9962
ltoes -5.05746
11
root -3.51406 17.2606 -5.2308 2.53469 1.77845 -7.21492
lowerback -7.7544 -2.16949 5.19797
upperback 2.66364 -3.48957 0.564819
thorax 6.8861 -1.49832 -2.78838
lowerneck 0.810832 -13.1749 -13.829
upperneck 1.32904 -18.8847 23.8632
head 3.99352 -9.35896 8.51528
rclavicle -2.54444e-014 2.78299e-014
rhumerus -31.7321 -4.7022 -81.6802
rradius 28.6392
rwrist -0.181272
rhand -9.76925 -9.81898
rfingers 7.12502
rthumb 16.2058 -39.1616
lclavicle -2.54444e-014 2.78299e-014
lhumerus -26.388 -0.403784 84.3617
lradius 16.4398
lwrist -0.217153
lhand -12.2162 -8.79612
lfingers 7.12502
lthumb 13.8487 20.7228
rfemur -16.6035 -0.223428 26.3696
rtibia 38.8355
rfoot -23.584 -4.59311
rtoes -3.02772
lfemur -10.9335 5.6599 -11.4889
ltibia 36.3857
lfoot -30.0672 20.9164
ltoes -5.13026
12
root -3.52128 17.2605 -5.22713 2.51387 1.93621 -7.20341
lowerback -7.77329 -2.17267 5.19429
upperback 2.65999 -3.49467 0.567462
thorax 6.89302 -1.50085 -2.78506
lowerneck 0.867248 -13.2232 -13.8431
upperneck 1.34779 -18.9623 23.8789
head 4.00751 -9.39957 8.51569
rclavicle 2.86747e-014 -3.97569e-015
rhumerus -31.6747 -4.55358 -81.7677
rradius 28.7932
rwrist -0.256525
rhand -9.83803 -9.87764
rfingers 7.12502
rthumb 16.1396 -39.2256
lclavicle 2.86747e-014 -3.97569e-015
lhumerus -26.4673 -0.375458 84.3217
lradius 16.509
lwrist -0.084271
lhand -12.2394 -8.87805
lfingers 7.12502
lthumb 13.8263 20.6424
rfemur -16.5645 -0.277269 26.3903
rtibia 38.8365
rfoot -23.6234 -4.68054
rtoes -3.01038
lfemur -10.9384 5.61253 -11.4582
ltibia 36.3821
lfoot -30.0088 20.8379
ltoes -5.19733
13
root -3.52829 17.2603 -5.22352 2.4916 2.0986 -7.19085
lowerback -7.7918 -2.17493 5.19059
upperback 2.65829 -3.49858 0.570215
thorax 6.90191 -1.5027 -2.7815
lowerneck 0.920063 -13.2721 -13.8566
upperneck 1.36248 -19.0399 23.8944
head 4.02087 -9.44007 8.51565
rclavicle -6.16232e-015 3.81667e-014
rhumerus -31.6155 -4.41187 -81.8506
rradius 28.9418
rwrist -0.325673
rhand -9.92597 -9.94993
rfingers 7.12502
rthumb 16.0549 -39.3048
lclavicle -6.16232e-015 3.81667e-014
lhumerus -26.5402 -0.368514 84.2929
lradius 16.5898
lwrist 0.0709206
lhand -12.2499 -8.96054
lfingers 7.12502
lthumb 13.8162 20.5606
rfemur -16.5238 -0.338309 26.4086
rtibia 38.8367
rfoot -23.6631 -4.76473
rtoes -2.99417
lfemur -10.9426 5.56069 -11.4297
ltibia 36.3784
lfoot -29.9503 20.7597
ltoes -5.26545
